<svg xmlns="http://www.w3.org/2000/svg" viewBox="0 0 32 32" width="32" height="32">
  <rect width="32" height="32" rx="6" fill="#0a0a0a"/>
  <!-- Twitter bird simplified path -->
  <path d="M24 9.5c-.8.36-1.67.6-2.57.71a4.48 4.48 0 0 0 1.97-2.48c-.87.51-1.83.88-2.85 1.08A4.48 4.48 0 0 0 13.3 13c0 .35.04.69.11 1.02C9.73 13.84 6.6 12.1 4.5 9.5c-.39.67-.61 1.45-.61 2.28a4.48 4.48 0 0 0 1.99 3.73c-.73-.02-1.42-.22-2.02-.56v.06a4.49 4.49 0 0 0 3.6 4.4c-.38.1-.77.16-1.18.16-.29 0-.56-.03-.84-.08a4.49 4.49 0 0 0 4.19 3.12A9 9 0 0 1 3 24.3a12.7 12.7 0 0 0 6.88 2.02c8.26 0 12.77-6.84 12.77-12.77l-.01-.58A9.1 9.1 0 0 0 24.9 10.7a8.9 8.9 0 0 1-2.55.7L24 9.5z" fill="#00ff88" transform="scale(0.72) translate(2.5, 3)"/>
</svg>
